<svg width="256" height="256" viewBox="0 0 256 256" fill="none" xmlns="http://www.w3.org/2000/svg"
    id="ant">
    <style>
        #ant {
        rect {fill: #15191C}

        @media (prefers-color-scheme: light) {
        rect {fill: #F4F2ED}
        }
        }
    </style>
    <rect width="256" height="256" rx="25" fill="#15191C" />
    <path fill-rule="evenodd" clip-rule="evenodd"
        d="M135.002 25.9489L175.695 66.6425C179.516 70.4632 179.516 76.6553 175.695 80.4739C171.874 84.2947 165.682 84.2947 161.864 80.4739L135.002 53.614C131.182 49.7933 124.99 49.7933 121.171 53.614L53.6168 121.17C49.7961 124.99 49.7961 131.182 53.6168 135.001L121.171 202.557C124.992 206.377 131.184 206.377 135.002 202.557L161.864 175.695C165.685 171.874 171.877 171.874 175.695 175.695C179.516 179.515 179.516 185.708 175.695 189.526L135.002 230.22C131.182 234.04 124.99 234.04 121.171 230.22L25.9522 135.001C22.1316 131.18 22.1316 124.988 25.9522 121.17L121.169 25.951C124.99 22.1303 131.184 22.1303 135.002 25.9489Z"
        fill="url(#paint0_linear_49_5)" />
    <path fill-rule="evenodd" clip-rule="evenodd"
        d="M189.528 94.3075C193.349 90.4868 199.541 90.4868 203.36 94.3075L230.221 121.17C234.042 124.99 234.042 131.182 230.221 135.001L203.36 161.863C199.539 165.684 193.347 165.684 189.528 161.863C185.708 158.042 185.708 151.85 189.528 148.032L202.557 135.003C206.377 131.182 206.377 124.99 202.557 121.172L189.528 108.143C185.708 104.32 185.708 98.1282 189.528 94.3075Z"
        fill="url(#paint1_linear_49_5)" />
    <path fill-rule="evenodd" clip-rule="evenodd"
        d="M128.087 159.063C145.195 159.063 159.064 145.194 159.064 128.085C159.064 110.977 145.195 97.1077 128.087 97.1077C110.979 97.1077 97.1097 110.977 97.1097 128.085C97.1097 145.194 110.979 159.063 128.087 159.063ZM128.087 144.186C119.195 144.186 111.987 136.977 111.987 128.085C111.987 119.193 119.195 111.985 128.087 111.985C136.979 111.985 144.187 119.193 144.187 128.085C144.187 136.977 136.979 144.186 128.087 144.186Z"
        fill="url(#paint2_linear_49_5)" />
    <defs>
        <linearGradient id="paint0_linear_49_5" x1="25615.9" y1="10523.1" x2="-1685.37" y2="10523.1"
            gradientUnits="userSpaceOnUse">
            <stop stop-color="#47B4E0" />
            <stop offset="0.1718" stop-color="#1588E0" />
            <stop offset="1" stop-color="#6EB4E0" />
        </linearGradient>
        <linearGradient id="paint1_linear_49_5" x1="10522.7" y1="21022.7" x2="10522.7" y2="23.4156"
            gradientUnits="userSpaceOnUse">
            <stop offset="0.0322" stop-color="#F0776F" />
            <stop offset="0.5032" stop-color="#F0656F" />
            <stop offset="1" stop-color="#F0606F" />
        </linearGradient>
        <linearGradient id="paint2_linear_49_5" x1="10523.1" y1="23.227" x2="10523.1" y2="21023"
            gradientUnits="userSpaceOnUse">
            <stop offset="0.0322" stop-color="#F0776F" />
            <stop offset="0.5032" stop-color="#F0656F" />
            <stop offset="1" stop-color="#F0606F" />
        </linearGradient>
    </defs>
</svg>
    