<svg width="256" height="256" viewBox="0 0 256 256" fill="none" xmlns="http://www.w3.org/2000/svg"
    id="echarts">
    <style>
        #echarts {
        rect {fill: #15191C}

        @media (prefers-color-scheme: light) {
        rect {fill: #F4F2ED}
        }
        }
    </style>
    <rect width="256" height="256" rx="25" fill="#15191C" />
    <circle cx="128" cy="128" r="68" fill="#D9D9D9" />
    <path
        d="M128.1 48C112.258 48 96.7712 52.6978 83.5989 61.4993C70.4265 70.3008 60.1599 82.8107 54.0973 97.4471C48.0347 112.083 46.4485 128.189 49.5391 143.727C52.6298 159.265 60.2586 173.537 71.4608 184.739C82.663 195.941 96.9354 203.57 112.473 206.661C128.011 209.752 144.117 208.165 158.753 202.103C173.389 196.04 185.899 185.774 194.701 172.601C203.502 159.429 208.2 143.942 208.2 128.1C208.2 106.856 199.761 86.4824 184.739 71.4607C169.718 56.4391 149.344 48 128.1 48ZM184.19 168.92C182.84 156.5 175.03 156.42 171.77 158.76C168.51 161.1 153 173.41 142.41 175.7C131.82 177.99 111.46 175.33 99.5 166.7C87.54 158.07 76.91 140.19 76.91 123.75C76.91 107.31 88.74 79.75 118.7 79.75C139.52 79.75 160.48 99.67 160.48 120.41C160.48 141.15 152.57 142.79 152.57 150.89C152.57 158.99 159.57 159.89 162.73 159.89C165.89 159.89 171.73 155.58 171.73 150.89C171.73 146.2 166.44 140.89 162.73 141.89C164.44 137.54 169.04 138.5 171.73 138.5C174.42 138.5 179.66 143.68 178.5 150.92C186.01 150.37 186.07 153.14 187.5 155.44C188.93 157.74 189.28 166.81 184.19 168.92Z"
        fill="#E43C61" />
</svg>
    