<svg width="256" height="256" viewBox="0 0 256 256" fill="none" xmlns="http://www.w3.org/2000/svg"
    id="electron">
    <style>
        #electron {
        rect {fill: #15191C}

        @media (prefers-color-scheme: light) {
        rect {fill: #F4F2ED}
        }
        }
    </style>
    <rect width="256" height="256" rx="25" fill="#15191C" />


    <g clip-path="url(#clip0_43_58)">
        <path
            d="M128 238C188.751 238 238 188.751 238 128C238 67.2487 188.751 18 128 18C67.2487 18 18 67.2487 18 128C18 188.751 67.2487 238 128 238Z"
            fill="#2F3242" />
        <path
            d="M106.336 85.8953C108.017 86.202 109.628 85.0879 109.935 83.4069C110.241 81.7262 109.127 80.1148 107.446 79.8082L106.336 85.8953ZM67.7394 122.733C68.5883 124.216 70.4784 124.73 71.9613 123.881C73.4443 123.032 73.9582 121.142 73.1093 119.659L67.7394 122.733ZM82.7857 132.719C81.6367 131.455 79.6801 131.361 78.4154 132.51C77.1508 133.659 77.0571 135.615 78.2061 136.88L82.7857 132.719ZM184.582 171.854C185.993 170.89 186.356 168.965 185.392 167.554C184.429 166.143 182.504 165.781 181.093 166.744L184.582 171.854ZM107.446 79.8082C97.8724 78.0618 88.9582 77.9784 81.5487 79.7677C74.1254 81.5603 67.9883 85.302 64.5023 91.3496L69.8629 94.4398C72.2597 90.2818 76.6864 87.3073 83.0011 85.7824C89.3297 84.2541 97.3284 84.2522 106.336 85.8953L107.446 79.8082ZM64.5023 91.3496C59.3239 100.333 61.4467 111.74 67.7394 122.733L73.1093 119.659C67.2558 109.433 66.312 100.6 69.8629 94.4398L64.5023 91.3496ZM78.2061 136.88C86.1287 145.6 96.574 154.014 108.832 161.103L111.929 155.746C100.17 148.946 90.2387 140.922 82.7857 132.719L78.2061 136.88ZM108.832 161.103C123.435 169.547 138.392 174.826 151.607 176.745C164.711 178.648 176.597 177.308 184.582 171.854L181.093 166.744C174.966 170.929 164.936 172.428 152.496 170.622C140.168 168.832 125.953 163.855 111.929 155.746L108.832 161.103ZM199.086 163.935C199.086 157.964 194.251 153.115 188.278 153.115V159.303C190.825 159.303 192.898 161.372 192.898 163.935H199.086ZM188.278 153.115C182.305 153.115 177.471 157.964 177.471 163.935H183.658C183.658 161.372 185.731 159.303 188.278 159.303V153.115ZM177.471 163.935C177.471 169.906 182.305 174.755 188.278 174.755V168.567C185.731 168.567 183.658 166.498 183.658 163.935H177.471ZM188.278 174.755C194.251 174.755 199.086 169.906 199.086 163.935H192.898C192.898 166.498 190.825 168.567 188.278 168.567V174.755Z"
            fill="#A2ECFB" />
        <path
            d="M175.244 130.375C174.141 131.68 174.305 133.632 175.61 134.735C176.915 135.838 178.867 135.674 179.969 134.369L175.244 130.375ZM163.246 78.5708C161.538 78.5485 160.135 79.9156 160.113 81.624C160.09 83.3325 161.457 84.7355 163.166 84.7578L163.246 78.5708ZM146.804 86.5439C148.475 86.1856 149.539 84.5406 149.18 82.8699C148.822 81.1995 147.177 80.1357 145.506 80.4943L146.804 86.5439ZM61.9125 157.055C62.1602 158.746 63.7315 159.915 65.4222 159.667C67.1128 159.42 68.2824 157.849 68.0347 156.158L61.9125 157.055ZM179.969 134.369C186.238 126.953 190.743 119.281 192.886 111.978C195.033 104.662 194.859 97.4874 191.381 91.4534L186.021 94.5435C188.413 98.6938 188.776 104.01 186.949 110.236C185.118 116.475 181.141 123.398 175.244 130.375L179.969 134.369ZM191.381 91.4534C186.286 82.6144 175.623 78.732 163.246 78.5708L163.166 84.7578C174.634 84.9072 182.529 88.487 186.021 94.5435L191.381 91.4534ZM145.506 80.4943C133.906 82.9835 121.276 87.8638 108.892 95.0251L111.989 100.381C123.87 93.5112 135.897 88.8845 146.804 86.5439L145.506 80.4943ZM108.892 95.0251C93.8598 103.718 81.5369 114.414 73.2563 125.237C65.0549 135.958 60.4786 147.27 61.9125 157.055L68.0347 156.158C66.9567 148.801 70.3784 139.183 78.1707 128.997C85.8838 118.915 97.5505 108.731 111.989 100.381L108.892 95.0251Z"
            fill="#A2ECFB" />
        <path
            d="M102.361 167.926C101.785 166.317 100.015 165.479 98.4059 166.054C96.7969 166.629 95.959 168.4 96.5343 170.009L102.361 167.926ZM153.031 183.731C153.91 182.266 153.435 180.366 151.97 179.487C150.505 178.607 148.605 179.082 147.726 180.547L153.031 183.731ZM154.761 164.402C154.252 166.033 155.161 167.768 156.792 168.278C158.423 168.787 160.158 167.878 160.667 166.247L154.761 164.402ZM136.862 56.7236C135.301 56.0292 133.472 56.732 132.778 58.2931C132.084 59.8544 132.786 61.6828 134.347 62.377L136.862 56.7236ZM96.5343 170.009C99.8114 179.174 104.195 186.937 109.443 192.462C114.701 197.994 121.001 201.444 127.972 201.444V195.256C123.185 195.256 118.403 192.909 113.929 188.199C109.445 183.479 105.444 176.551 102.361 167.926L96.5343 170.009ZM127.972 201.444C138.088 201.444 146.721 194.244 153.031 183.731L147.726 180.547C141.884 190.279 134.896 195.256 127.972 195.256V201.444ZM160.667 166.247C164.14 155.133 166.127 142.065 166.127 128.116H159.94C159.94 141.498 158.03 153.939 154.761 164.402L160.667 166.247ZM166.127 128.116C166.127 111.009 163.138 95.2096 158.071 82.7112C153.05 70.3249 145.778 60.6887 136.862 56.7236L134.347 62.377C141.125 65.3912 147.567 73.2688 152.337 85.0357C157.062 96.6905 159.94 111.684 159.94 128.116H166.127Z"
            fill="#A2ECFB" />
        <path fill-rule="evenodd" clip-rule="evenodd"
            d="M195.992 163.935C195.992 159.668 192.539 156.209 188.278 156.209C184.018 156.209 180.565 159.668 180.565 163.935C180.565 168.202 184.018 171.661 188.278 171.661C192.539 171.661 195.992 168.202 195.992 163.935Z"
            stroke="#A2ECFB" stroke-width="3.6" stroke-linecap="round" />
        <path
            d="M127.972 65.6071C132.232 65.6071 135.685 62.1481 135.685 57.8813C135.685 53.6145 132.232 50.1555 127.972 50.1555C123.712 50.1555 120.258 53.6145 120.258 57.8813C120.258 62.1481 123.712 65.6071 127.972 65.6071Z"
            stroke="#A2ECFB" stroke-width="3.6" stroke-linecap="round" />
        <path fill-rule="evenodd" clip-rule="evenodd"
            d="M129.461 135.022C125.652 135.846 121.9 133.422 121.076 129.607C120.254 125.793 122.673 122.035 126.482 121.209C130.29 120.385 134.043 122.809 134.867 126.624C135.69 130.438 133.27 134.196 129.461 135.022Z"
            fill="#A2ECFB" />
    </g>
    <defs>
        <clipPath id="clip0_43_58">
            <rect width="220" height="220" fill="white" transform="translate(18 18)" />
        </clipPath>
    </defs>
</svg>
    