<svg width="256" height="256" viewBox="0 0 256 256" fill="none" xmlns="http://www.w3.org/2000/svg"
    id="lottie">
    <style>
        #lottie {
        rect {fill: #15191C}

        @media (prefers-color-scheme: light) {
        rect {fill: #F4F2ED}
        }
        }
    </style>
    <rect width="256" height="256" rx="25" fill="#15191C" />

    <path fill-rule="evenodd" clip-rule="evenodd"
        d="M76.6329 24H179.367C208.436 24 232 47.6779 232 76.8858V180.114C232 209.322 208.436 233 179.367 233H76.6329C47.5645 233 24 209.322 24 180.114V76.8858C24 47.6779 47.5645 24 76.6329 24ZM122.408 117.045C133.071 96.4205 146.31 70.8147 182.109 70.8147C183.46 70.8134 184.798 71.0795 186.046 71.5984C187.294 72.117 188.428 72.8779 189.383 73.8377C190.338 74.7975 191.095 75.9368 191.611 77.1908C192.127 78.4448 192.393 79.789 192.391 81.1462C192.393 82.5033 192.127 83.8472 191.611 85.1015C191.095 86.3555 190.338 87.4949 189.383 88.4546C188.428 89.4141 187.294 90.1753 186.046 90.6939C184.798 91.2124 183.46 91.4789 182.109 91.4773C160.364 91.4773 151.928 104.776 140.623 126.667L133.653 139.86L133.624 139.915C122.967 160.547 109.724 186.186 73.9016 186.186C71.1745 186.186 68.5592 185.098 66.631 183.16C64.7027 181.223 63.6195 178.595 63.6195 175.855C63.6195 173.115 64.7027 170.487 66.631 168.55C68.5592 166.612 71.1745 165.524 73.9016 165.524C95.6464 165.524 104.083 152.225 115.398 130.334L122.358 117.142L122.408 117.045Z"
        fill="#00DDB3" />
</svg>
    