<svg width="48" height="48" viewBox="0 0 48 48" fill="none" xmlns="http://www.w3.org/2000/svg">
    <g clip-path="url(#clip0_1181_7)">
        <g clip-path="url(#clip1_1181_7)">
            <path
                d="M43.3125 0H4.6875C2.09867 0 0 2.09867 0 4.6875V43.3125C0 45.9013 2.09867 48 4.6875 48H43.3125C45.9013 48 48 45.9013 48 43.3125V4.6875C48 2.09867 45.9013 0 43.3125 0Z"
                fill="#E0234E" />
            <path
                d="M26.6636 9C26.4474 9 26.2463 9.04626 26.0599 9.10875C26.4549 9.37125 26.6724 9.72124 26.7799 10.1162C26.7887 10.17 26.8037 10.2087 26.8112 10.2625C26.8204 10.3086 26.8258 10.3555 26.8275 10.4025C26.8575 11.0837 26.6486 11.17 26.5024 11.5725C26.2774 12.0912 26.34 12.6487 26.61 13.0975C26.6346 13.1576 26.6657 13.2151 26.7024 13.2687C26.4086 11.3087 28.0436 11.015 28.3449 10.4025C28.3686 9.86749 27.9274 9.51124 27.5786 9.26376C27.3047 9.09154 26.9873 9.00052 26.6636 9.00126V9ZM29.1274 9.44124C29.0974 9.61999 29.1199 9.57375 29.1124 9.66624C29.1049 9.72874 29.1049 9.80625 29.0974 9.86749C29.0811 9.93 29.0661 9.99249 29.0424 10.0537C29.0274 10.1162 29.0049 10.1787 28.9798 10.24L28.8962 10.4175C28.8711 10.4487 28.8574 10.48 28.8336 10.5112L28.7874 10.58C28.7505 10.633 28.7117 10.6847 28.6712 10.735C28.6249 10.7825 28.5861 10.8362 28.5311 10.875V10.8825C28.4848 10.9212 28.4387 10.9675 28.3836 11.0075C28.2212 11.1312 28.0361 11.2237 27.8649 11.34C27.8111 11.3775 27.7562 11.41 27.7099 11.4562C27.6574 11.4932 27.6081 11.5346 27.5625 11.58C27.5087 11.6262 27.4699 11.6725 27.4238 11.7275C27.3849 11.7737 27.3386 11.8275 27.3075 11.8825C27.2685 11.9348 27.2321 11.989 27.1988 12.045C27.1674 12.1075 27.1449 12.1612 27.1136 12.2225C27.09 12.285 27.0675 12.3387 27.0512 12.4012C27.0308 12.4651 27.0128 12.5297 26.9974 12.595C26.9899 12.6262 26.9899 12.665 26.9824 12.695C26.9738 12.7262 26.9738 12.7575 26.9663 12.7887C26.9663 12.8512 26.9588 12.92 26.9588 12.9825C26.9588 13.0287 26.9588 13.075 26.9663 13.1212C26.9663 13.1837 26.9738 13.2462 26.9899 13.315C26.9974 13.3775 27.0124 13.44 27.0274 13.5025C27.0525 13.5637 27.0675 13.625 27.09 13.6875C27.1061 13.725 27.1286 13.765 27.1449 13.7962L25.3624 13.1062C25.0613 13.0212 24.7661 12.9437 24.4637 12.8737L23.9762 12.7575C23.5112 12.665 23.0387 12.595 22.5662 12.5487C22.5499 12.5487 22.5424 12.5412 22.5274 12.5412C21.729 12.4612 20.9252 12.4508 20.1249 12.51C19.6524 12.5412 19.1799 12.6025 18.7075 12.68C18.3564 12.7405 18.0074 12.813 17.6612 12.8975L17.3125 12.99C17.1975 13.0362 17.0875 13.09 16.98 13.1375L16.7238 13.2537C16.7088 13.2612 16.6938 13.2612 16.6863 13.2687C16.6075 13.3075 16.5387 13.3387 16.4688 13.3775C16.3681 13.4219 16.2697 13.4711 16.1738 13.525C16.12 13.5475 16.0662 13.5787 16.0188 13.6025C15.9966 13.6163 15.9736 13.6288 15.95 13.64C15.88 13.68 15.81 13.7187 15.7475 13.7575C15.6837 13.7927 15.6219 13.8315 15.5625 13.8737C15.5075 13.9112 15.4538 13.9425 15.4075 13.9812C15.4 13.99 15.3913 13.99 15.3838 13.9975C15.3375 14.0287 15.2838 14.0675 15.2363 14.1062L15.2213 14.1212L15.105 14.2137C15.09 14.2225 15.0738 14.2375 15.0588 14.245C15.02 14.2762 14.9813 14.315 14.9425 14.345C14.935 14.3612 14.9188 14.37 14.9113 14.3762C14.865 14.4237 14.8188 14.4625 14.7725 14.5087C14.7638 14.5087 14.7638 14.5162 14.7563 14.5237C14.7081 14.5658 14.6618 14.61 14.6175 14.6562C14.6088 14.6637 14.6088 14.6712 14.6013 14.6712C14.5606 14.711 14.5218 14.7527 14.485 14.7962C14.47 14.8112 14.4475 14.8262 14.4313 14.8412C14.3898 14.8903 14.3455 14.9371 14.2988 14.9812C14.2913 14.9962 14.2763 15.005 14.2688 15.0187C14.2063 15.0812 14.1525 15.1437 14.09 15.2062L14.0675 15.2287C13.9425 15.3612 13.8113 15.4924 13.6713 15.6087C13.5325 15.7337 13.385 15.8487 13.2375 15.9499C12.9414 16.1615 12.6218 16.3381 12.285 16.4762C12.1225 16.5462 11.9513 16.6087 11.7813 16.6625C11.4563 16.7324 11.1225 16.8637 10.8363 16.8874C10.7738 16.8874 10.705 16.9025 10.6425 16.91L10.4488 16.9562L10.2625 17.0262C10.2 17.0499 10.1388 17.0812 10.0776 17.1112C10.0225 17.1499 9.9613 17.1812 9.90629 17.2199C9.85115 17.2599 9.79932 17.3042 9.7513 17.3524C9.69755 17.3899 9.64255 17.4449 9.5963 17.4912C9.55006 17.5449 9.5038 17.5912 9.46505 17.6462C9.42631 17.7087 9.38005 17.7624 9.3488 17.8249C9.30809 17.8812 9.27173 17.9406 9.24005 18.0024C9.20881 18.0724 9.17755 18.1349 9.15505 18.2037C9.1313 18.2662 9.1088 18.3362 9.08506 18.4049C9.07006 18.4674 9.0538 18.5299 9.04756 18.5924C9.04756 18.5987 9.0388 18.6074 9.0388 18.6149C9.0238 18.6849 9.0238 18.7774 9.01505 18.8237C9.00755 18.8786 9.00005 18.9236 9.00005 18.9788C8.99862 19.1136 9.03038 19.2465 9.09256 19.3661V19.3736C9.1163 19.4199 9.14755 19.4674 9.17881 19.5137C9.20881 19.56 9.2413 19.6061 9.2788 19.6524C9.31756 19.6913 9.3638 19.7387 9.41131 19.7775C9.45648 19.8227 9.5054 19.8641 9.55756 19.9012C9.7438 20.0636 9.79006 20.1174 10.03 20.2412C10.0688 20.265 10.1076 20.28 10.155 20.3036C10.1625 20.3036 10.17 20.3111 10.1775 20.3111C10.1775 20.3274 10.1775 20.3349 10.185 20.3499C10.2031 20.4776 10.2367 20.6027 10.285 20.7225C10.3101 20.7686 10.3251 20.8149 10.3476 20.8613C10.3563 20.8774 10.3638 20.8924 10.3725 20.8999C10.4025 20.9625 10.4338 21.0161 10.4638 21.0712L10.5801 21.2336C10.6188 21.2799 10.6663 21.3337 10.7125 21.3812C10.7588 21.4275 10.805 21.4661 10.86 21.5124C10.86 21.5124 10.8675 21.5199 10.875 21.5199C10.9213 21.5588 10.9675 21.5974 11.015 21.6287C11.0689 21.6666 11.1258 21.6999 11.185 21.7286C11.2388 21.7599 11.3013 21.7911 11.3625 21.8149C11.4125 21.8374 11.4644 21.8554 11.5175 21.8687C11.5263 21.8762 11.5338 21.8762 11.5488 21.8837C11.58 21.8923 11.6188 21.8998 11.6488 21.9073C11.6263 22.3262 11.6188 22.7199 11.6813 22.8598C11.75 23.0149 12.0913 22.5424 12.4313 21.9999C12.3863 22.5349 12.355 23.1624 12.4313 23.3486C12.5175 23.5423 12.9813 22.9374 13.385 22.2711C18.8788 21.0011 23.8913 24.7961 24.4174 30.1586C24.3174 29.3211 23.2862 28.8574 22.8137 28.9736C22.5812 29.5461 22.1861 30.2824 21.5513 30.7399C21.6049 30.2272 21.5824 29.7024 21.4736 29.1898C21.3002 29.9033 20.9721 30.5698 20.5125 31.1422C19.7775 31.1961 19.0412 30.8398 18.6537 30.3049C18.6225 30.2824 18.615 30.2361 18.5912 30.2047C18.5687 30.1511 18.545 30.096 18.5287 30.0424C18.5062 29.9904 18.4907 29.9359 18.4825 29.8798C18.475 29.8249 18.475 29.7711 18.475 29.7086V29.5924C18.4842 29.5374 18.4972 29.4831 18.5137 29.4298C18.53 29.3762 18.545 29.3224 18.5687 29.2674C18.5987 29.2136 18.6225 29.1587 18.6612 29.1049C18.7926 28.7323 18.7926 28.4299 18.5525 28.2523C18.5059 28.2219 18.4565 28.1961 18.405 28.1749C18.375 28.1674 18.3362 28.1524 18.305 28.1436L18.2425 28.1211C18.1894 28.104 18.1351 28.0911 18.08 28.0824C18.0272 28.0669 17.9725 28.059 17.9175 28.0586C17.8612 28.0498 17.8044 28.0447 17.7475 28.0436C17.7087 28.0436 17.67 28.0511 17.6312 28.0511C17.5733 28.0508 17.5156 28.0588 17.46 28.0749C17.4063 28.0824 17.3525 28.0899 17.2975 28.1049C17.2422 28.1198 17.1879 28.1381 17.135 28.1599C17.0812 28.1824 17.035 28.2062 16.98 28.2298C16.9338 28.2523 16.8875 28.2836 16.8325 28.3074C15.0275 29.4849 16.105 32.2423 17.3362 33.0411C16.8712 33.126 16.3988 33.2261 16.2675 33.3274L16.2513 33.3424C16.585 33.5436 16.9338 33.7147 17.2975 33.8623C17.7937 34.0249 18.32 34.1711 18.5525 34.2336V34.2411C19.1944 34.3729 19.8508 34.4199 20.505 34.3811C23.9374 34.1411 26.7499 31.5298 27.2612 28.0899L27.3075 28.2911C27.3311 28.4312 27.3611 28.5786 27.3774 28.7248V28.7323C27.3924 28.8024 27.3999 28.8724 27.4088 28.9348V28.9648C27.4163 29.0349 27.4238 29.1049 27.4238 29.1673C27.4313 29.2524 27.4388 29.3374 27.4388 29.4223V29.5474C27.4388 29.5849 27.4474 29.6312 27.4474 29.6698C27.4474 29.7174 27.4388 29.7636 27.4388 29.8099V29.9186C27.4388 29.9722 27.4313 30.0186 27.4313 30.0735C27.4313 30.1048 27.4313 30.1361 27.4238 30.1736C27.4238 30.2286 27.4163 30.2824 27.4163 30.3448C27.4088 30.3673 27.4088 30.3911 27.4088 30.4136L27.3836 30.5923C27.3836 30.6161 27.3836 30.6386 27.3774 30.6622C27.3686 30.7399 27.3536 30.8098 27.3461 30.8872V30.9022L27.3 31.1198V31.1422L27.2537 31.3511C27.2537 31.3597 27.2449 31.3761 27.2449 31.3822C27.2306 31.4533 27.2128 31.5233 27.1913 31.5923V31.6147C27.1674 31.6924 27.1449 31.7623 27.1286 31.8323C27.1211 31.8398 27.1211 31.8473 27.1211 31.8473L27.0512 32.0797C27.0212 32.1574 26.9974 32.2273 26.9663 32.3048C26.9349 32.3824 26.9124 32.4598 26.8811 32.5298C26.85 32.6074 26.8187 32.676 26.7887 32.7548H26.7799C26.7499 32.8236 26.7174 32.901 26.6799 32.9711C26.6734 32.9895 26.6655 33.0075 26.6561 33.0248C26.6486 33.0323 26.6486 33.0411 26.6411 33.0486C26.1287 34.0744 25.383 34.9658 24.4637 35.6511C24.4013 35.6899 24.3399 35.7373 24.2775 35.7836C24.2625 35.7986 24.24 35.8061 24.2237 35.8211C24.1682 35.862 24.1116 35.9012 24.0536 35.9385L24.0761 35.9848H24.0849L24.4099 35.9385H24.4174C24.6188 35.9074 24.8199 35.8686 25.0211 35.8297C25.0763 35.8222 25.1374 35.8061 25.1925 35.7911L25.3013 35.7673C25.3549 35.7598 25.4087 35.7448 25.4636 35.7373C25.5099 35.721 25.5563 35.7124 25.6024 35.6985C26.3775 35.511 27.1286 35.256 27.8499 34.9549C26.6048 36.6508 24.9488 38.0023 23.0374 38.8822C23.9299 38.8198 24.8199 38.6736 25.68 38.4248C28.7927 37.5096 31.4216 35.409 33.0011 32.5747C32.6822 34.3689 31.9706 36.0703 30.9174 37.5574C31.6682 37.062 32.3621 36.4853 32.9861 35.8373C34.7203 34.0268 35.8588 31.7289 36.2486 29.2524C36.5111 30.4774 36.5886 31.7398 36.4736 32.9861C42.066 25.1848 36.9373 17.0962 34.7912 14.9662C34.7837 14.95 34.7762 14.9425 34.7762 14.9275C34.7687 14.935 34.7687 14.935 34.7687 14.9425C34.7687 14.935 34.7687 14.935 34.7599 14.9275C34.7599 15.0199 34.7524 15.1125 34.7449 15.2062C34.7233 15.3797 34.6976 15.5527 34.6674 15.725C34.6299 15.895 34.5823 16.0662 34.5362 16.2374C34.4811 16.4 34.4199 16.5699 34.3487 16.7324C34.2778 16.8929 34.2006 17.0506 34.1173 17.2049C33.9444 17.5086 33.7449 17.7964 33.5211 18.0649C33.4048 18.2037 33.2811 18.3274 33.1562 18.4524C33.0831 18.5192 33.0081 18.5838 32.9312 18.6462L32.7536 18.8012C32.6153 18.9103 32.4705 19.011 32.3199 19.1025C32.1718 19.1977 32.0192 19.2859 31.8624 19.3661C31.6999 19.4438 31.5373 19.5137 31.3749 19.5836C31.044 19.7096 30.7014 19.803 30.3523 19.8624C30.1736 19.8937 29.9961 19.9087 29.8249 19.9249C29.7013 19.9337 29.5776 19.9388 29.4536 19.9399C29.2774 19.9374 29.1015 19.9271 28.9262 19.9088C28.7492 19.8947 28.5733 19.8688 28.3999 19.8311C28.2242 19.7992 28.0509 19.7554 27.8813 19.6999H27.8724C28.0436 19.6838 28.2137 19.6688 28.3849 19.6374C28.7338 19.5769 29.0762 19.4837 29.4073 19.3586C29.5774 19.2962 29.7399 19.2187 29.8948 19.1411C30.0574 19.0637 30.2049 18.9787 30.3598 18.8861C30.5074 18.7862 30.6536 18.6849 30.7937 18.5762C30.9336 18.4674 31.0648 18.3512 31.1886 18.2274C31.3198 18.1112 31.4361 17.9799 31.5523 17.8474C31.6686 17.7087 31.7773 17.5687 31.8774 17.4299C31.8936 17.4062 31.9099 17.3749 31.9249 17.3524C32.0023 17.2274 32.0799 17.1037 32.1499 16.9799C32.3207 16.6716 32.4606 16.3471 32.5674 16.0112C32.6224 15.8487 32.6612 15.6787 32.6998 15.5074C32.7311 15.3299 32.7624 15.16 32.7774 14.9887C32.7924 14.8112 32.8086 14.6325 32.8086 14.4625C32.8086 14.3375 32.7999 14.2137 32.7924 14.09C32.7769 13.9164 32.7561 13.7434 32.7298 13.5712C32.6998 13.3966 32.6614 13.2235 32.6149 13.0525C32.5599 12.89 32.5061 12.7187 32.4437 12.5562C32.3811 12.3937 32.3049 12.2312 32.2273 12.0762C32.1411 11.9212 32.0561 11.7662 31.9637 11.6187C31.8647 11.4739 31.7614 11.3322 31.6536 11.1937C31.5373 11.0612 31.4211 10.9287 31.2973 10.7975C31.2323 10.731 31.1651 10.6664 31.0961 10.6037C30.7461 10.3325 30.3836 10.0775 30.0186 9.84499C29.9685 9.81607 29.9168 9.7902 29.8637 9.76749C29.6338 9.62679 29.3863 9.51622 29.1274 9.44124Z"
                fill="white" />
        </g>
    </g>
    <defs>
        <clipPath id="clip0_1181_7">
            <rect width="48" height="48" fill="white" />
        </clipPath>
        <clipPath id="clip1_1181_7">
            <rect width="48" height="48" fill="white" />
        </clipPath>
    </defs>
</svg>
    