<svg width="256" height="256" viewBox="0 0 256 256" fill="none" xmlns="http://www.w3.org/2000/svg"
    id="pinia">
    <style>
        #pinia {
        rect {fill: #15191C}

        @media (prefers-color-scheme: light) {
        rect {fill: #F4F2ED}
        }
        }
    </style>
    <rect width="256" height="256" rx="25" fill="#15191C" />
    <path fill-rule="evenodd" clip-rule="evenodd"
        d="M126.38 129.701C140.832 115.921 136.42 98.8766 123.329 78.2218C110.237 57.567 83.8859 50.2169 78.9705 54.9036C74.055 59.5903 72.9683 93.1017 86.0602 113.756C99.152 134.411 111.928 143.481 126.38 129.701Z"
        fill="url(#paint0_linear_43_31)" />
    <path fill-rule="evenodd" clip-rule="evenodd"
        d="M138.878 131.605C149.572 148.478 163.867 142.31 181.56 125.44C199.254 108.57 206.588 76.2513 202.951 70.5126C199.313 64.7739 171.675 65.0592 153.982 81.9294C136.289 98.7996 128.183 114.732 138.878 131.605Z"
        fill="url(#paint1_linear_43_31)" />
    <path fill-rule="evenodd" clip-rule="evenodd"
        d="M133.032 122.324C150.79 124.507 157.772 108.093 161.026 81.5596C164.28 55.0264 150.855 26.9812 144.815 26.2386C138.775 25.4961 118.487 49.3966 115.233 75.9298C111.979 102.463 115.274 120.141 133.032 122.324Z"
        fill="url(#paint2_linear_43_31)" />
    <path fill-rule="evenodd" clip-rule="evenodd"
        d="M128.557 239.667C165.784 239.667 195.973 228.845 195.973 179.767C195.973 130.69 165.784 90.417 128.557 90.417C91.3314 90.417 61.1656 130.69 61.1656 179.767C61.1656 228.845 91.3314 239.667 128.557 239.667Z"
        fill="url(#paint3_linear_43_31)" />
    <path
        d="M162.607 169.748C167.925 169.748 172.236 167.741 172.236 165.266C172.236 162.79 167.925 160.784 162.607 160.784C157.289 160.784 152.978 162.79 152.978 165.266C152.978 167.741 157.289 169.748 162.607 169.748Z"
        fill="#EAADCC" />
    <path
        d="M91.2985 167.025C96.5768 167.674 101.1 166.208 101.402 163.751C101.703 161.294 97.6684 158.777 92.3901 158.128C87.1117 157.479 82.5884 158.945 82.2869 161.402C81.9855 163.859 86.0201 166.377 91.2985 167.025Z"
        fill="#EAADCC" />
    <path
        d="M134.726 163.678C131.828 166.035 128.481 166.997 124.684 166.563C120.888 166.129 118.074 164.552 116.242 161.832"
        stroke="black" stroke-width="6" stroke-linecap="round" stroke-linejoin="round" />
    <path fill-rule="evenodd" clip-rule="evenodd"
        d="M97.4349 140.354C100.093 140.261 102.536 141.255 104.339 142.937C106.141 144.618 107.302 146.988 107.395 149.647C107.487 152.307 106.494 154.752 104.814 156.556C103.133 158.359 100.764 159.521 98.1066 159.614C95.4491 159.707 93.0057 158.714 91.2036 157.032C89.4015 155.35 88.2405 152.98 88.1478 150.321C88.055 147.661 89.0481 145.216 90.7287 143.413C92.4093 141.609 94.7775 140.447 97.4349 140.354Z"
        fill="black" />
    <path fill-rule="evenodd" clip-rule="evenodd"
        d="M97.9404 148.409C97.88 146.677 96.4277 145.322 94.6981 145.383C92.9675 145.443 91.6136 146.896 91.674 148.628C91.7343 150.359 93.1862 151.714 94.9168 151.654C96.6463 151.593 98.0008 150.14 97.9404 148.409Z"
        fill="white" />
    <path fill-rule="evenodd" clip-rule="evenodd"
        d="M155.779 142.8C158.437 142.707 160.88 143.701 162.682 145.382C164.484 147.064 165.645 149.434 165.738 152.093C165.831 154.753 164.838 157.198 163.157 159.002C161.476 160.805 159.108 161.967 156.451 162.06C153.793 162.153 151.35 161.159 149.547 159.477C147.745 157.796 146.584 155.426 146.491 152.766C146.398 150.107 147.392 147.662 149.072 145.858C150.753 144.055 153.121 142.893 155.779 142.8Z"
        fill="black" />
    <path
        d="M106.052 149.694C106.212 154.271 102.634 158.11 98.0597 158.271C93.4864 158.431 89.6501 154.851 89.4906 150.274C89.3311 145.697 92.9089 141.858 97.4822 141.698C102.056 141.538 105.893 145.118 106.052 149.694ZM108.738 149.6C108.527 143.54 103.446 138.799 97.3885 139.011C91.3319 139.223 86.5937 144.307 86.8049 150.368C87.0161 156.429 92.0967 161.17 98.1534 160.958C104.211 160.746 108.949 155.661 108.738 149.6Z"
        fill="white" stroke="white" stroke-width="3" />
    <path
        d="M164.396 152.14C164.555 156.717 160.977 160.556 156.403 160.716C151.83 160.876 147.993 157.297 147.834 152.72C147.674 148.143 151.253 144.304 155.826 144.144C160.4 143.984 164.236 147.564 164.396 152.14ZM167.081 152.046C166.87 145.985 161.789 141.245 155.732 141.456C149.676 141.668 144.937 146.753 145.148 152.814C145.359 158.875 150.44 163.616 156.497 163.404C162.554 163.192 167.292 158.107 167.081 152.046Z"
        fill="white" stroke="white" stroke-width="3" />
    <path fill-rule="evenodd" clip-rule="evenodd"
        d="M156.284 150.854C156.224 149.123 154.772 147.768 153.041 147.829C151.311 147.889 149.957 149.342 150.017 151.074C150.078 152.805 151.53 154.16 153.26 154.099C154.99 154.039 156.344 152.586 156.284 150.854Z"
        fill="white" />
    <path d="M77.5126 184.314L110.655 218.825" stroke="#ECB732" stroke-width="11"
        stroke-linecap="round" />
    <path d="M106.176 188.348L85.1263 210.757" stroke="#ECB732" stroke-width="11"
        stroke-linecap="round" />
    <path d="M179.178 184.314L146.036 218.825" stroke="#ECB732" stroke-width="11"
        stroke-linecap="round" />
    <path d="M150.515 188.348L171.564 210.757" stroke="#ECB732" stroke-width="11"
        stroke-linecap="round" />
    <path d="M142.005 108.121L120.06 130.082" stroke="#FFC73B" stroke-width="11"
        stroke-linecap="round" />
    <path d="M137.527 130.082L115.581 108.121" stroke="#FFC73B" stroke-width="11"
        stroke-linecap="round" />
    <defs>
        <linearGradient id="paint0_linear_43_31" x1="7295.67" y1="-5587.47" x2="13288.4"
            y2="11170.3" gradientUnits="userSpaceOnUse">
            <stop stop-color="#52CE63" />
            <stop offset="1" stop-color="#51A256" />
        </linearGradient>
        <linearGradient id="paint1_linear_43_31" x1="5852.7" y1="7307.04" x2="-10897.7" y2="13287.1"
            gradientUnits="userSpaceOnUse">
            <stop stop-color="#52CE63" />
            <stop offset="1" stop-color="#51A256" />
        </linearGradient>
        <linearGradient id="paint2_linear_43_31" x1="7425.67" y1="921.35" x2="4111.97" y2="27875"
            gradientUnits="userSpaceOnUse">
            <stop stop-color="#8AE99C" />
            <stop offset="1" stop-color="#52CE63" />
        </linearGradient>
        <linearGradient id="paint3_linear_43_31" x1="22155.4" y1="12529.5" x2="18577.2" y2="71242.4"
            gradientUnits="userSpaceOnUse">
            <stop stop-color="#FFE56C" />
            <stop offset="1" stop-color="#FFC63A" />
        </linearGradient>
    </defs>
</svg>
    