<svg width="256" height="256" viewBox="0 0 256 256" fill="none" xmlns="http://www.w3.org/2000/svg"
    id="python">
    <style>
        #python {
        rect {fill: #15191C}

        @media (prefers-color-scheme: light) {
        rect {fill: #F4F2ED}
        }
        }
    </style>
    <rect width="256" height="256" rx="25" fill="#15191C" />
    <path
        d="M130.599 26.0004C122.251 26.0275 116.464 26.7633 109.469 27.9703C88.811 31.5676 85.0492 39.1216 85.0492 53.0413V74.3167H133.364V85.0528H59.8611C45.7092 85.0528 33.3254 91.7202 29.4009 107.701C24.9661 126.044 24.7677 137.533 29.4009 156.687C32.9168 170.971 40.6641 181.682 54.8195 181.682H74.3182V154.282C74.3182 138.36 88.7364 122.631 105.26 122.631H144.105C157.65 122.631 170.948 112.635 170.948 99.1335V53.0397C170.948 39.9472 161.505 30.1555 148.302 27.9601C148.631 27.9279 138.877 25.9682 130.599 26.0004ZM103.843 47.4741C108.25 47.4741 111.895 51.1088 111.895 55.5368C111.895 60.0088 108.25 63.579 103.843 63.579C102.784 63.5867 101.734 63.384 100.755 62.9826C99.7748 62.5813 98.8845 61.9894 98.1354 61.2412C97.3862 60.493 96.7932 59.6035 96.3906 58.6242C95.988 57.645 95.784 56.5955 95.7903 55.5368C95.7903 51.124 99.3503 47.4741 103.843 47.4741Z"
        fill="url(#paint0_linear_41_76)" />
    <path
        d="M125.396 229.997C133.743 229.97 139.531 229.234 146.526 228.027C167.184 224.43 170.947 216.876 170.947 202.956V181.682H122.633V170.944H196.141C210.291 170.944 222.675 164.277 226.599 148.296C231.034 129.953 231.232 118.464 226.599 99.3098C223.078 85.0257 215.331 74.3151 201.175 74.3151H181.678V101.715C181.678 117.637 167.259 133.366 150.735 133.366H111.89C98.3449 133.366 85.0491 143.363 85.0491 156.864V202.956C85.0491 216.05 94.4916 225.842 107.693 228.037C107.364 228.069 117.118 230.029 125.396 229.997ZM152.157 208.523C147.75 208.523 144.105 204.888 144.105 200.46C144.105 195.988 147.75 192.418 152.157 192.418C156.65 192.418 160.21 195.983 160.21 200.46C160.21 204.873 156.645 208.523 152.157 208.523Z"
        fill="url(#paint1_linear_41_76)" />
    <defs>
        <linearGradient id="paint0_linear_41_76" x1="57.6488" y1="68.797" x2="142.769" y2="140.221"
            gradientUnits="userSpaceOnUse">
            <stop stop-color="#26ABE7" />
            <stop offset="1" stop-color="#086DBF" />
        </linearGradient>
        <linearGradient id="paint1_linear_41_76" x1="191.19" y1="202.678" x2="127.754" y2="112.077"
            gradientUnits="userSpaceOnUse">
            <stop stop-color="#FEB705" />
            <stop offset="1" stop-color="#FFDA1C" />
        </linearGradient>
    </defs>
</svg>
    