<svg width="256" height="256" viewBox="0 0 256 256" fill="none" xmlns="http://www.w3.org/2000/svg"
    id="reactjs">
    <style>
        #reactjs {
        rect {fill: #15191C}

        @media (prefers-color-scheme: light) {
        rect {fill: #F4F2ED}
        }
        }
    </style>
    <rect width="256" height="256" rx="25" fill="#15191C" />

    <path
        d="M127.9 149.114C139.597 149.114 149.08 139.604 149.08 127.873C149.08 116.142 139.597 106.632 127.9 106.632C116.203 106.632 106.72 116.142 106.72 127.873C106.72 139.604 116.203 149.114 127.9 149.114Z"
        fill="#087EA4" />
    <path
        d="M127.9 175.666C186.387 175.666 233.8 154.268 233.8 127.873C233.8 101.478 186.387 80.0806 127.9 80.0806C69.413 80.0806 22 101.478 22 127.873C22 154.268 69.413 175.666 127.9 175.666Z"
        stroke="#087EA4" stroke-width="4" />
    <path
        d="M86.6296 151.769C115.873 202.567 158.057 233.047 180.85 219.85C203.643 206.652 198.414 154.774 169.17 103.977C139.927 53.1794 97.7431 22.6987 74.95 35.8963C52.157 49.0938 57.3861 100.972 86.6296 151.769Z"
        stroke="#087EA4" stroke-width="4" />
    <path
        d="M86.6296 103.977C57.3861 154.774 52.157 206.652 74.95 219.85C97.743 233.047 139.927 202.567 169.17 151.769C198.414 100.972 203.643 49.0938 180.85 35.8962C158.057 22.6987 115.873 53.1793 86.6296 103.977Z"
        stroke="#087EA4" stroke-width="4" />
</svg>
    