<svg width="256" height="256" viewBox="0 0 256 256" fill="none" xmlns="http://www.w3.org/2000/svg"
    id="taillwindcss">
    <style>
        #taillwindcss {
        rect {fill: #15191C}

        @media (prefers-color-scheme: light) {
        rect {fill: #F4F2ED}
        }
        }
    </style>
    <path
        d="M77.2354 128.5C102.638 128.5 114.275 140.307 124.319 150.508C130.486 156.766 136.063 162.427 143.858 164.378C157.523 167.796 169.477 162.665 179.724 149.004C172.894 176.339 155.818 190 128.488 190C103.086 190 91.4544 178.194 81.4043 167.993C75.2431 161.729 69.6665 156.074 61.8652 154.129C48.2066 150.711 36.247 155.835 26 169.502C32.8293 142.167 49.918 128.5 77.2354 128.5ZM128.488 67C153.879 67 165.51 78.8116 175.56 89.0068C181.721 95.2708 187.298 100.926 195.1 102.871C208.758 106.295 220.717 101.165 230.964 87.5039C224.129 114.832 207.053 128.5 179.724 128.5C154.321 128.5 142.69 116.693 132.64 106.492C126.478 100.228 120.901 94.5737 113.105 92.6289C99.4409 89.2107 87.4883 94.3407 77.2354 108.002C84.0766 80.6673 101.153 67 128.488 67Z"
        fill="#00BCFF" />
</svg>
    