<svg width="256" height="256" viewBox="0 0 256 256" fill="none" xmlns="http://www.w3.org/2000/svg"
    id="vite">
    <style>
        #vite {
        rect {fill: #15191C}

        @media (prefers-color-scheme: light) {
        rect {fill: #F4F2ED}
        }
        }
    </style>
    <rect width="256" height="256" rx="25" fill="#15191C" />

    <path
        d="M236.996 50.5617L133.781 235.128C131.65 238.939 126.175 238.961 124.012 235.169L18.7505 50.5795C16.394 46.4471 19.9277 41.4416 24.6105 42.2786L127.936 60.7475C128.595 60.8653 129.27 60.8642 129.929 60.7441L231.094 42.3051C235.761 41.4544 239.312 46.4212 236.996 50.5617Z"
        fill="url(#paint0_linear_41_89)" />
    <path
        d="M177.156 18.0542L100.774 33.021C99.5181 33.267 98.5886 34.3309 98.5128 35.6077L93.8143 114.963C93.7038 116.832 95.4203 118.283 97.2445 117.862L118.51 112.954C120.5 112.495 122.298 114.248 121.889 116.249L115.571 147.187C115.146 149.269 117.101 151.05 119.134 150.432L132.269 146.442C134.305 145.823 136.262 147.609 135.831 149.693L125.791 198.29C125.162 201.33 129.206 202.988 130.892 200.382L132.018 198.641L194.259 74.4291C195.301 72.3494 193.504 69.9779 191.22 70.4187L169.33 74.6434C167.273 75.04 165.523 73.1243 166.103 71.1118L180.39 21.584C180.971 19.568 179.215 17.6507 177.156 18.0542Z"
        fill="url(#paint1_linear_41_89)" />
    <defs>
        <linearGradient id="paint0_linear_41_89" x1="16.1805" y1="35.6825" x2="144.64" y2="210.14"
            gradientUnits="userSpaceOnUse">
            <stop stop-color="#41D1FF" />
            <stop offset="1" stop-color="#BD34FE" />
        </linearGradient>
        <linearGradient id="paint1_linear_41_89" x1="122.006" y1="22.1176" x2="145.243" y2="181.526"
            gradientUnits="userSpaceOnUse">
            <stop stop-color="#FFEA83" />
            <stop offset="0.0833333" stop-color="#FFDD35" />
            <stop offset="1" stop-color="#FFA800" />
        </linearGradient>
    </defs>
</svg>
    