<svg width="256" height="256" viewBox="0 0 256 256" fill="none" xmlns="http://www.w3.org/2000/svg"
    id="uveuse">
    <style>
        #uveuse {
        rect {fill: #15191C}

        @media (prefers-color-scheme: light) {
        rect {fill: #F4F2ED}
        }
        }
    </style>
    <rect width="256" height="256" rx="25" fill="#15191C" />

    <path
        d="M179 35V134.6C179 162.436 156.391 185 128.5 185C100.609 185 78 162.436 78 134.6V35H113.726V134.6C113.726 136.536 114.108 138.453 114.851 140.242C115.593 142.031 116.681 143.657 118.053 145.026C119.425 146.395 121.054 147.481 122.846 148.222C124.639 148.963 126.56 149.344 128.5 149.344C130.44 149.344 132.361 148.963 134.154 148.222C135.946 147.481 137.575 146.395 138.947 145.026C140.318 143.657 141.407 142.031 142.149 140.242C142.892 138.453 143.274 136.536 143.274 134.6V35H179Z"
        fill="#35495E" />
    <path
        d="M214 35V134.778C214 182.391 175.497 221 128 221C80.5024 221 42 182.391 42 134.778V35H77.6312V134.778C77.6312 162.665 100.183 185.269 128 185.269C155.816 185.269 178.369 162.665 178.369 134.778V35H214Z"
        fill="#41B883" />
</svg>
    